<svg width="353" height="139" viewBox="0 0 353 139" fill="none" xmlns="http://www.w3.org/2000/svg">
<g clip-path="url(#clip0_1395_353)">
<path opacity="0.5" d="M-99.7395 60C-99.7395 26.8629 -72.8766 0 -39.7395 0H144.72H157.451C174.07 0 189.109 9.84498 195.758 25.0755L195.933 25.4751C196.666 27.1559 197.271 28.8902 197.741 30.6629L198.497 33.514C202.247 47.6542 215.044 57.5 229.673 57.5V57.5C238.492 57.5 246.926 61.1114 253.013 67.4935L272.352 87.7718C277.114 92.7648 285.382 91.5494 288.505 85.3974L306.234 50.4799C307.747 47.4988 309.002 44.3931 309.983 41.197L314.332 27.0347C319.265 10.9673 334.105 0 350.913 0V0C372.047 0 389.18 17.1327 389.18 38.267V72C389.18 105.137 362.317 132 329.18 132H-39.7395C-72.8766 132 -99.7395 105.137 -99.7395 72V60Z" fill="#FFF270"/>
<path d="M-99.7395 71C-99.7395 37.8629 -72.8766 11 -39.7395 11H144.72H154.365C172.597 11 188.833 22.5343 194.835 39.75L197.019 46.0156C201.713 59.4794 214.411 68.5 228.669 68.5V68.5C238.104 68.5 247.103 72.4767 253.454 79.4536L273.578 101.558C278.22 106.657 286.509 105.637 289.778 99.5651L309.08 63.7041C311.296 59.588 312.929 55.1839 313.931 50.6183L316.27 39.9721C319.985 23.0535 334.974 11 352.296 11V11C372.666 11 389.18 27.5138 389.18 47.8847V83C389.18 116.137 362.317 143 329.18 143H-39.7395C-72.8766 143 -99.7395 116.137 -99.7395 83V71Z" fill="#FDE720"/>
<ellipse cx="29.3351" cy="35" rx="6.84488" ry="7" fill="#FFFCE0"/>
<ellipse cx="46.9362" cy="65" rx="6.84488" ry="7" fill="#FFFCE0"/>
<ellipse cx="151.565" cy="31" rx="6.84488" ry="7" fill="#FFFCE0"/>
<ellipse cx="181.878" cy="61" rx="6.84488" ry="7" fill="#FFFCE0"/>
<ellipse cx="144.72" cy="75" rx="6.84488" ry="7" fill="#FFFCE0"/>
<ellipse cx="207.302" cy="89" rx="6.84488" ry="7" fill="#FFFCE0"/>
<ellipse cx="338.332" cy="45" rx="6.84488" ry="7" fill="#FFFCE0"/>
<ellipse cx="317.798" cy="84" rx="6.84488" ry="7" fill="#FFFCE0"/>
</g>
<defs>
<clipPath id="clip0_1395_353">
<rect width="353" height="139" fill="white"/>
</clipPath>
</defs>
</svg>
