<svg width="11" height="40" viewBox="0 0 11 40" fill="none" xmlns="http://www.w3.org/2000/svg">
<path d="M7.48894 1.36356H3.51018C3.12256 1.36356 2.80841 1.05778 2.80841 0.681778C2.80841 0.305778 3.12256 0 3.51062 0H7.48938C7.877 0 8.19159 0.305778 8.19159 0.681778C8.19159 1.05778 7.87701 1.36356 7.48894 1.36356ZM10.9996 16.1951C10.9996 13.908 9.5045 11.9609 7.41106 11.224V2.04578H3.5885V11.2244C1.4955 11.9609 0 13.908 0 16.1956V38.5253C0 38.5756 0.0026394 38.6249 0.00395934 38.6747C0.00395934 38.6747 -0.0778771 40 0.819247 40C1.71637 40 9.28363 40 10.1812 40C11.0783 40 10.9965 38.6747 10.9965 38.6747C10.9978 38.6249 11 38.5756 11 38.5253L10.9996 16.1951Z" fill="black"/>
</svg>
