<svg width="23" height="25" viewBox="0 0 23 25" fill="none" xmlns="http://www.w3.org/2000/svg">
<path d="M15.0937 20C15.6927 20 16.2021 19.8175 16.6218 19.4525C17.0416 19.0875 17.251 18.645 17.25 18.125C17.25 17.6042 17.0401 17.1613 16.6204 16.7963C16.2006 16.4313 15.6917 16.2492 15.0937 16.25C14.4948 16.25 13.9854 16.4325 13.5657 16.7975C13.1459 17.1625 12.9365 17.605 12.9375 18.125C12.9375 18.6458 13.1474 19.0887 13.5671 19.4537C13.9869 19.8187 14.4957 20.0008 15.0937 20ZM7.83438 19.9375L17.1781 11.8125L15.1656 10.0625L5.82188 18.1875L7.83438 19.9375ZM7.90625 13.75C8.50521 13.75 9.01456 13.5675 9.43431 13.2025C9.85406 12.8375 10.0635 12.395 10.0625 11.875C10.0625 11.3542 9.85263 10.9113 9.43288 10.5463C9.01313 10.1813 8.50425 9.99917 7.90625 10C7.30729 10 6.79794 10.1825 6.37819 10.5475C5.95844 10.9125 5.74904 11.355 5.75 11.875C5.75 12.3958 5.95987 12.8387 6.37962 13.2037C6.79937 13.5687 7.30825 13.7508 7.90625 13.75ZM11.5 25C8.21771 25 5.48023 24.0208 3.28756 22.0625C1.0949 20.1042 -0.000957705 17.6667 6.28003e-07 14.75C6.28003e-07 12.6667 0.952584 10.4008 2.85775 7.9525C4.76292 5.50417 7.64367 2.85333 11.5 0C15.3573 2.85417 18.2385 5.50542 20.1437 7.95375C22.0489 10.4021 23.001 12.6675 23 14.75C23 17.6667 21.9037 20.1042 19.711 22.0625C17.5183 24.0208 14.7813 25 11.5 25Z" fill="#2D0680"/>
</svg>
