<svg width="19" height="27" viewBox="0 0 19 27" fill="none" xmlns="http://www.w3.org/2000/svg">
<path d="M5.25 26H13.75C14.1257 26 14.4861 25.8537 14.7517 25.5932C15.0174 25.3327 15.1667 24.9795 15.1667 24.6111V19.5764C15.1667 17.6361 15.5775 15.7222 16.3637 13.9861L16.8029 13.0139C17.5906 11.2778 18 9.88472 18 7.94444V2.38889C18 2.02053 17.8507 1.66726 17.5851 1.4068C17.3194 1.14633 16.9591 1 16.5833 1H2.41667C2.04094 1 1.68061 1.14633 1.41493 1.4068C1.14926 1.66726 1 2.02053 1 2.38889V7.94444C1 9.88472 1.41083 11.2778 2.19708 13.0139L2.63625 13.9861C3.42879 15.7472 3.83656 17.6515 3.83333 19.5764V24.6111C3.83333 24.9795 3.98259 25.3327 4.24827 25.5932C4.51394 25.8537 4.87428 26 5.25 26ZM1 7.94444H18Z" fill="#2D0680"/>
<path d="M18 7.94444C18 9.88472 17.5906 11.2778 16.8029 13.0139L16.3637 13.9861C15.5775 15.7222 15.1667 17.6361 15.1667 19.5764V24.6111C15.1667 24.9795 15.0174 25.3327 14.7517 25.5932C14.4861 25.8537 14.1257 26 13.75 26H5.25C4.87428 26 4.51394 25.8537 4.24827 25.5932C3.98259 25.3327 3.83333 24.9795 3.83333 24.6111V19.5764C3.83656 17.6515 3.42879 15.7472 2.63625 13.9861L2.19708 13.0139C1.41083 11.2778 1 9.88472 1 7.94444M18 7.94444V2.38889C18 2.02053 17.8507 1.66726 17.5851 1.4068C17.3194 1.14633 16.9591 1 16.5833 1H2.41667C2.04094 1 1.68061 1.14633 1.41493 1.4068C1.14926 1.66726 1 2.02053 1 2.38889V7.94444M18 7.94444H1" stroke="white" stroke-linecap="round" stroke-linejoin="round"/>
</svg>
