<svg width="25" height="25" viewBox="0 0 25 25" fill="none" xmlns="http://www.w3.org/2000/svg">
<path d="M12.5 25C19.4036 25 25 19.4036 25 12.5C25 5.59644 19.4036 0 12.5 0C5.59644 0 0 5.59644 0 12.5C0 19.4036 5.59644 25 12.5 25Z" fill="#2D0680"/>
<path d="M12.5 5V20M16.25 9.375C16.25 7.65 14.5712 6.25 12.5 6.25C10.4288 6.25 8.75 7.65 8.75 9.375C8.75 11.1 10.4288 12.5 12.5 12.5C14.5712 12.5 16.25 13.9 16.25 15.625C16.25 17.35 14.5712 18.75 12.5 18.75C10.4288 18.75 8.75 17.35 8.75 15.625" stroke="white" stroke-width="1.5" stroke-linecap="round"/>
</svg>
